<svg>

  <symbol id="icon-logo" viewBox="0 0 25 33" fill="none" xmlns="http://www.w3.org/2000/svg">
    <path d="M12.5 0.427246V7.42007C15.4545 7.42007 17.8585 9.82335 17.8585 12.7785C17.8585 15.7331 15.4545 18.137 12.5 18.137V33.0001L22.308 20.6689C24.069 18.4418 25 15.7652 25 12.9272C25 6.0349 19.3923 0.427246 12.5 0.427246Z" fill="#CD2A00"/>
    <path d="M17.8585 12.7789C17.8585 9.82369 15.4545 7.42041 12.5 7.42041V18.1374C15.4545 18.1374 17.8585 15.7334 17.8585 12.7789Z" fill="#D8D7DA"/>
    <path d="M7.14152 12.7785C7.14152 9.82335 9.54547 7.42007 12.5 7.42007V0.427246C5.60765 0.427246 0 6.0349 0 12.9272C0 15.7652 0.931037 18.4418 2.69465 20.6716L12.5 33.0001V18.137C9.54547 18.137 7.14152 15.7331 7.14152 12.7785Z" fill="#FF3501"/>
    <path d="M7.14148 12.7789C7.14148 15.7334 9.54543 18.1374 12.5 18.1374V7.42041C9.54543 7.42041 7.14148 9.82369 7.14148 12.7789Z" fill="white"/>
  </symbol>

  <symbol id="icon-filter" viewBox="0 0 15 15" xmlns="http://www.w3.org/2000/svg">
    <path d="M14.936 0.425669C14.8152 0.149163 14.6062 0.0108912 14.308 0.0107422H0.691695C0.393876 0.0107422 0.184587 0.149163 0.0640141 0.425669C-0.0564846 0.716334 -0.00689161 0.964709 0.213017 1.17031L5.45762 6.41476V11.5848C5.45762 11.7694 5.52502 11.9287 5.65971 12.0637L8.38286 14.7868C8.51062 14.9214 8.67013 14.989 8.86168 14.989C8.94671 14.989 9.03532 14.9712 9.12753 14.9357C9.40423 14.8151 9.54261 14.606 9.54261 14.3081V6.4148L14.787 1.17035C15.007 0.964746 15.0565 0.716446 14.936 0.425669Z" fill="inherit"/>
  </symbol>

</svg>
