<svg>

  <symbol id="icon-logo" viewBox="0 0 25 33" fill="none" xmlns="http://www.w3.org/2000/svg">
    <path d="M12.5 0.427246V7.42007C15.4545 7.42007 17.8585 9.82335 17.8585 12.7785C17.8585 15.7331 15.4545 18.137 12.5 18.137V33.0001L22.308 20.6689C24.069 18.4418 25 15.7652 25 12.9272C25 6.0349 19.3923 0.427246 12.5 0.427246Z" fill="#CD2A00"/>
    <path d="M17.8585 12.7789C17.8585 9.82369 15.4545 7.42041 12.5 7.42041V18.1374C15.4545 18.1374 17.8585 15.7334 17.8585 12.7789Z" fill="#D8D7DA"/>
    <path d="M7.14152 12.7785C7.14152 9.82335 9.54547 7.42007 12.5 7.42007V0.427246C5.60765 0.427246 0 6.0349 0 12.9272C0 15.7652 0.931037 18.4418 2.69465 20.6716L12.5 33.0001V18.137C9.54547 18.137 7.14152 15.7331 7.14152 12.7785Z" fill="#FF3501"/>
    <path d="M7.14148 12.7789C7.14148 15.7334 9.54543 18.1374 12.5 18.1374V7.42041C9.54543 7.42041 7.14148 9.82369 7.14148 12.7789Z" fill="white"/>
  </symbol>

  <symbol id="icon-filter" viewBox="0 0 15 15" xmlns="http://www.w3.org/2000/svg">
    <path d="M14.936 0.425669C14.8152 0.149163 14.6062 0.0108912 14.308 0.0107422H0.691695C0.393876 0.0107422 0.184587 0.149163 0.0640141 0.425669C-0.0564846 0.716334 -0.00689161 0.964709 0.213017 1.17031L5.45762 6.41476V11.5848C5.45762 11.7694 5.52502 11.9287 5.65971 12.0637L8.38286 14.7868C8.51062 14.9214 8.67013 14.989 8.86168 14.989C8.94671 14.989 9.03532 14.9712 9.12753 14.9357C9.40423 14.8151 9.54261 14.606 9.54261 14.3081V6.4148L14.787 1.17035C15.007 0.964746 15.0565 0.716446 14.936 0.425669Z" fill="inherit"/>
  </symbol>

  <symbol id="icon-invisible" viewBox="0 0 17 17" xmlns="http://www.w3.org/2000/svg">
    <g clip-path="url(#clip0)">
    <path d="M8.37061 5.80762L10.8041 8.24116L10.8157 8.11369C10.8157 6.83511 9.77666 5.79604 8.49808 5.79604L8.37061 5.80762Z" fill="inherit"/>
    <path d="M8.49849 4.25096C10.6307 4.25096 12.3613 5.98149 12.3613 8.11373C12.3613 8.61203 12.2608 9.08715 12.087 9.52363L14.3467 11.7833C15.5133 10.8099 16.4326 9.55068 17.0004 8.11373C15.6601 4.72224 12.3651 2.3196 8.49853 2.3196C7.41694 2.3196 6.38175 2.51272 5.41992 2.86037L7.08863 4.52521C7.52508 4.35526 8.0002 4.25096 8.49849 4.25096Z" fill="inherit"/>
    <path d="M0.77254 2.14574L2.53396 3.90716L2.88548 4.25868C1.61077 5.25527 0.60259 6.58021 0 8.1137C1.33653 11.5052 4.63531 13.9078 8.49808 13.9078C9.69555 13.9078 10.8389 13.6761 11.8857 13.255L12.2141 13.5834L14.4661 15.8392L15.4511 14.8581L1.75754 1.16074L0.77254 2.14574ZM5.04477 6.4141L6.23837 7.60769C6.2036 7.7738 6.18043 7.93988 6.18043 8.1137C6.18043 9.39229 7.2195 10.4314 8.49808 10.4314C8.6719 10.4314 8.83801 10.4082 9.00025 10.3734L10.1938 11.567C9.68008 11.8219 9.10842 11.9765 8.49808 11.9765C6.36584 11.9765 4.63531 10.2459 4.63531 8.1137C4.63531 7.5034 4.78983 6.9317 5.04477 6.4141Z" fill="inherit"/>
    </g>
    <defs>
    <clipPath id="clip0">
    <rect width="17" height="17" fill="white"/>
    </clipPath>
    </defs>
  </symbol>

  <symbol id="icon-round-question" viewBox="0 0 19 19" xmlns="http://www.w3.org/2000/svg">
    <path d="M9.374 0.000619226C4.12773 0.0708366 -0.0679693 4.38115 0.00183509 9.62763C0.0720525 14.8718 4.38196 19.0688 9.62802 18.999C14.8733 18.9283 19.0698 14.618 19 9.37196C18.9298 4.12734 14.6197 -0.0693916 9.374 0.000619226ZM9.34591 15.2824L9.29346 15.2816C8.48554 15.2576 7.91596 14.6624 7.93888 13.8665C7.96139 13.0842 8.54482 12.5162 9.32609 12.5162L9.37297 12.5171C10.2034 12.5417 10.7666 13.1309 10.7432 13.9497C10.7201 14.7343 10.1458 15.2824 9.34591 15.2824ZM12.7442 8.53761C12.5542 8.80753 12.1364 9.14272 11.61 9.55287L11.0303 9.95311C10.7121 10.2005 10.52 10.4333 10.4479 10.6623C10.3911 10.8426 10.3632 10.8903 10.3583 11.2571L10.3575 11.3502H8.14396L8.15036 11.1629C8.17741 10.393 8.19641 9.9401 8.51549 9.56588C9.0161 8.97812 10.1204 8.26706 10.1673 8.23691C10.3254 8.11775 10.4589 7.98206 10.5582 7.83709C10.7905 7.51677 10.8934 7.26461 10.8934 7.01678C10.8934 6.67292 10.7914 6.35488 10.5896 6.07174C10.3957 5.79851 10.0272 5.66014 9.4944 5.66014C8.96591 5.66014 8.60409 5.82784 8.38765 6.1719C8.16502 6.52567 8.05247 6.89721 8.05247 7.27679V7.37117H5.7702L5.77433 7.27266C5.83318 5.87472 6.33214 4.86813 7.25674 4.28078C7.83769 3.90677 8.56051 3.71718 9.40395 3.71718C10.508 3.71718 11.44 3.98546 12.1738 4.51456C12.9173 5.0507 13.2944 5.85365 13.2944 6.90113C13.2944 7.48703 13.1094 8.03741 12.7442 8.53761Z" fill="inherit"/>
  </symbol>

  <symbol id="icon-webmoney" viewBox="0 0 159 48" fill="none" xmlns="http://www.w3.org/2000/svg">
    <path d="M131.745 8.64459C134.239 8.64459 136.612 9.21635 138.741 10.2391C139.075 10.3898 139.411 10.5703 139.744 10.7509L138.284 12.045L136.095 9.78826L132.323 13.0977L130.102 10.7204L123.167 16.8888L127.607 21.7331L125.874 23.2372L130.255 28.0815L128.521 29.5849L134.788 36.4754L138.497 33.1053L141.723 36.7169C141.083 37.1984 140.384 37.6808 139.624 38.1013C137.312 39.3949 134.634 40.1457 131.775 40.1457C122.983 40.1457 115.836 33.0764 115.836 24.3816C115.805 15.7456 122.954 8.64459 131.745 8.64459ZM128.824 23.4181L132.627 20.048L136.034 23.8089L132.231 27.1787L128.824 23.4181ZM131.532 29.9174L135.304 26.5175L138.741 30.2781L134.939 33.6483L131.532 29.9174ZM126.118 17.0096L129.92 13.6395L133.327 17.4004L129.524 20.7704L126.118 17.0096ZM133.083 15.2037L135.912 12.6764L138.468 15.4747L135.639 18.0319L133.083 15.2037ZM138.133 26.7877L140.961 24.2603L143.517 27.0878L140.688 29.6168L138.133 26.7877ZM140.627 32.475L143.456 29.947L146.01 32.7452L143.182 35.302L140.627 32.475ZM141.783 19.4763L143.669 17.7911L145.372 19.6573L143.486 21.3418L141.783 19.4763ZM139.35 13.9099L141.235 12.1953L142.94 14.0905L141.052 15.7755L139.35 13.9099ZM144.186 25.0431L146.072 23.3581L147.806 25.2237L145.89 26.9082L144.186 25.0431ZM135.699 20.8607L138.529 18.3332L141.083 21.1309L138.255 23.6588L135.699 20.8607Z" fill="#036CB5"/>
    <mask id="mask0" mask-type="alpha" maskUnits="userSpaceOnUse" x="10" y="15" width="18" height="15">
    <path d="M10.4717 15.1893V29.7327H27.0981V15.1893H10.4717Z" fill="white"/>
    </mask>
    <path d="M18.8156 19.4958H18.6721L15.9784 29.7327H13.7767L10.4717 15.1893H12.7561L15.041 26.0411H15.1837L17.8353 15.1893H19.6515L22.4872 26.0411H22.63L24.7111 15.1893H27.0981L23.7922 29.7327H21.5888L18.8156 19.4958Z" fill="#036CB5"/>
    <path d="M29.9956 23.5413H34.6663C34.565 21.3881 33.524 20.5273 32.4228 20.5273C31.1785 20.5273 30.219 21.4912 29.9956 23.5413ZM36.2981 27.3987V28.958C35.3803 29.4911 34.1569 29.9017 32.6873 29.9017C29.261 29.9017 27.8535 27.7683 27.8535 24.5278C27.8535 21.4086 29.424 19.1522 32.484 19.1522C35.0333 19.1522 36.605 20.8148 36.605 24.1575V24.9166H29.9547C29.9547 27.3773 30.9537 28.4648 33.0557 28.4648C34.1569 28.4648 35.1769 28.0744 36.2981 27.3987Z" fill="#036CB5"/>
    <path d="M41.3511 28.2569C42.004 28.5441 42.7186 28.5866 43.2294 28.5866C44.7387 28.5866 45.8798 27.6416 45.8798 24.3195C45.8798 21.7144 44.9415 20.8733 43.5753 20.8733C42.7587 20.8733 42.1673 21.0997 41.3511 21.55V28.2569ZM41.3726 20.0325C41.983 19.7054 43.0233 19.2732 44.1253 19.2732C46.6551 19.2732 48.0221 21.0372 48.0221 24.3195C48.0221 28.1556 46.1858 30.0222 43.2294 30.0222C42.1474 30.0222 40.4747 29.6733 39.25 29.0155V14.6993L41.3726 14.1872V20.0325Z" fill="#036CB5"/>
    <path d="M57.203 26.6469H57.3052L61.6699 15.1804H64.2008V29.7249H61.9977V19.1807H61.8138L57.6516 29.7249H56.3472L52.1841 19.4272H52.0012V29.7249H50.165V15.1804H52.6341L57.203 26.6469Z" fill="#036CB5"/>
    <path d="M73.2021 24.5271C73.2021 21.7582 72.081 20.5895 70.6938 20.5895C69.3479 20.5895 68.1841 21.7582 68.1841 24.5271C68.1841 27.3377 69.2462 28.4648 70.6938 28.4648C72.1415 28.4648 73.2021 27.3377 73.2021 24.5271ZM66.043 24.5271C66.043 20.9362 68.0019 19.1522 70.6938 19.1522C73.3874 19.1522 75.3452 20.9362 75.3452 24.5271C75.3452 28.0341 73.489 29.9017 70.6938 29.9017C67.8992 29.9017 66.043 28.0341 66.043 24.5271Z" fill="#036CB5"/>
    <path d="M76.959 20.6712C77.8769 20.1165 79.8157 19.1522 82.1611 19.1522C84.6089 19.1522 85.5252 20.1165 85.5252 22.2287V29.6553H83.4051V22.7011C83.4051 21.081 82.6109 20.7939 81.5692 20.7939C80.7542 20.7939 79.7125 21.1636 79.0806 21.5328V29.6553H76.959V20.6712Z" fill="#036CB5"/>
    <path d="M90.0165 23.5413H94.6876C94.5872 21.3881 93.5456 20.5273 92.444 20.5273C91.1993 20.5273 90.2418 21.4912 90.0165 23.5413ZM96.3191 27.3987V28.958C95.4017 29.4911 94.1776 29.9017 92.7086 29.9017C89.2834 29.9017 87.875 27.7683 87.875 24.5278C87.875 21.4086 89.4449 19.1522 92.5052 19.1522C95.056 19.1522 96.6275 20.8148 96.6275 24.1575V24.9166H89.9764C89.9764 27.3773 90.9761 28.4648 93.0772 28.4648C94.1776 28.4648 95.1992 28.0744 96.3191 27.3987Z" fill="#036CB5"/>
    <path d="M105.1 19.1522H107.283L103.591 29.4071C102.569 32.2381 101.326 33.7151 98.9807 33.7151V32.0342C100.369 32.0342 101.224 30.926 101.715 29.4071L97.7979 19.1522H100.042L102.653 26.7006H102.776L105.1 19.1522Z" fill="#036CB5"/>
    <path d="M32.5066 39.1862V38.3004C33.2631 38.6848 33.9829 38.8777 34.6649 38.8777C35.233 38.8777 35.6682 38.7735 35.9723 38.563C36.2764 38.354 36.4287 38.0714 36.4287 37.7142C36.4287 37.3571 36.3037 37.0891 36.0535 36.9109C35.8039 36.733 35.3374 36.5125 34.655 36.2515C34.4182 36.1625 34.2669 36.1045 34.1986 36.0768C34.1314 36.05 33.9996 35.9944 33.8033 35.9123C33.6076 35.8305 33.4793 35.7682 33.4187 35.7272C33.3577 35.6849 33.255 35.6229 33.1094 35.5416C32.9643 35.4584 32.8664 35.3851 32.8154 35.3211C32.7653 35.2551 32.6956 35.1719 32.6077 35.0725C32.52 34.9735 32.4607 34.8751 32.4302 34.7748C32.4001 34.6754 32.3709 34.5604 32.3442 34.4297C32.3175 34.2988 32.3037 34.1585 32.3037 34.0074C32.3037 33.4238 32.5185 32.9548 32.9472 32.5974C33.3766 32.2412 33.9691 32.0627 34.7261 32.0627C35.3947 32.0627 36.0607 32.1859 36.7223 32.4332V33.3694C36.0806 33.0533 35.4387 32.8967 34.7968 32.8967C34.3442 32.8967 34.0063 32.9912 33.7834 33.1832C33.5604 33.3752 33.4488 33.6292 33.4488 33.9454C33.4488 34.2819 33.5604 34.537 33.7834 34.7124C34.0063 34.8885 34.4052 35.0824 34.9796 35.2945C35.9657 35.6583 36.6449 35.9876 37.0162 36.2832C37.3881 36.5774 37.5738 37.0179 37.5738 37.6004C37.5738 38.2119 37.3188 38.7116 36.8086 39.0994C36.2985 39.4871 35.5977 39.6811 34.7056 39.6811C33.8884 39.6811 33.1552 39.5155 32.5066 39.1862ZM42.8184 39.5252H41.8558L41.7847 38.9281C41.2032 39.4091 40.6225 39.6497 40.0414 39.6497C39.5552 39.6497 39.1784 39.5179 38.9117 39.2529C38.6444 38.9887 38.5111 38.6551 38.5111 38.2491C38.5111 38.036 38.5498 37.8324 38.6277 37.6367C38.7055 37.4408 38.8339 37.251 39.0128 37.0657C39.1918 36.8801 39.4619 36.7312 39.8233 36.6175C40.1847 36.5036 40.6191 36.4474 41.126 36.4474H41.7545V36.1695C41.7545 35.7097 41.67 35.3967 41.501 35.2276C41.3317 35.0594 41.0481 34.9754 40.6496 34.9754C40.1632 34.9754 39.5651 35.1769 38.8559 35.5829V34.7595C39.5857 34.4233 40.3015 34.2538 41.0041 34.2538C41.6862 34.2538 42.1597 34.3953 42.4228 34.6773C42.6866 34.958 42.8184 35.3842 42.8184 35.9525V39.5252ZM41.7646 37.1677H41.2271C40.1189 37.1677 39.5651 37.5009 39.5651 38.1669C39.5651 38.401 39.6391 38.5691 39.7879 38.6761C39.9369 38.7828 40.1227 38.8355 40.3459 38.8355C40.629 38.8355 40.9029 38.7668 41.1664 38.6291C41.4299 38.4928 41.6295 38.335 41.7646 38.1564V37.1677ZM44.4652 41.5849V35.0069C44.7626 34.7798 45.1134 34.5972 45.5192 34.4602C45.9248 34.3239 46.3228 34.2538 46.7152 34.2538C48.12 34.2538 48.8231 35.1156 48.8231 36.839C48.8231 37.7312 48.6407 38.4142 48.2756 38.8869C47.9109 39.361 47.3878 39.5967 46.7048 39.5967C46.2317 39.5967 45.8365 39.4766 45.5192 39.2379V41.5849H44.4652ZM45.5091 35.3557V38.4763C45.6442 38.6062 45.8145 38.7029 46.0207 38.7685C46.2269 38.8336 46.4078 38.8661 46.563 38.8661C46.9344 38.8661 47.227 38.7211 47.4398 38.4295C47.6526 38.1372 47.7586 37.6072 47.7586 36.839C47.7586 36.2145 47.6494 35.7567 47.4298 35.4701C47.2102 35.1808 46.9244 35.0374 46.573 35.0374C46.175 35.0374 45.8203 35.1431 45.5091 35.3557ZM51.2403 34.3067V39.5252H50.1863V34.5636L51.2403 34.3067ZM50.024 32.7925C50.024 32.6073 50.0932 32.4448 50.2315 32.3033C50.3705 32.1627 50.531 32.0921 50.7127 32.0921C50.8956 32.0921 51.056 32.1627 51.1948 32.3033C51.3333 32.4448 51.4025 32.6073 51.4025 32.7925C51.4025 32.9778 51.3333 33.1414 51.1948 33.2826C51.056 33.4219 50.8956 33.4925 50.7127 33.4925C50.531 33.4925 50.3705 33.4219 50.2315 33.2826C50.0932 33.1414 50.024 32.9778 50.024 32.7925ZM55.1876 38.9281C55.6744 38.9281 56.211 38.7496 56.7989 38.3934V39.1757C56.2587 39.4919 55.6606 39.6497 55.0053 39.6497C54.181 39.6497 53.5748 39.4127 53.1863 38.9389C52.7977 38.4649 52.6034 37.803 52.6034 36.952C52.6034 36.1417 52.8029 35.489 53.201 34.9964C53.6001 34.5023 54.1671 34.2538 54.9035 34.2538C55.5527 34.2538 56.0554 34.4672 56.4143 34.8932C56.7722 35.3194 56.9508 35.943 56.9508 36.7664V37.1479H53.6473C53.6473 37.759 53.7724 38.2091 54.022 38.4956C54.2721 38.785 54.6607 38.9281 55.1876 38.9281ZM54.8731 34.9447C54.5561 34.9447 54.2888 35.0719 54.0726 35.3248C53.8568 35.5791 53.7213 35.9573 53.6674 36.4569H55.9881C55.9608 35.9497 55.843 35.5715 55.6334 35.3211C55.4243 35.0699 55.1708 34.9447 54.8731 34.9447ZM58.2935 39.5252V35.0166C59.1245 34.5083 59.986 34.2538 60.8782 34.2538C61.4795 34.2538 61.9082 34.3783 62.165 34.6256C62.4218 34.8729 62.5501 35.2637 62.5501 35.7986V39.5252H61.4963V36.0356C61.4963 35.6583 61.4185 35.404 61.2632 35.2744C61.1077 35.1431 60.8816 35.0785 60.5841 35.0785C60.1789 35.0785 59.7666 35.2025 59.3479 35.4493V39.5252H58.2935ZM65.2003 34.5023H66.8016L66.5481 35.2025H65.2003V37.9196C65.2003 38.6062 65.4909 38.9492 66.0718 38.9492C66.2947 38.9492 66.521 38.9016 66.7515 38.8052V39.4635C66.4337 39.5874 66.0551 39.6497 65.616 39.6497C65.1092 39.6497 64.7377 39.5035 64.501 39.2109C64.2647 38.9205 64.1463 38.5374 64.1463 38.0627V33.8222L65.2003 33.0492V34.5023ZM68.8646 34.3067V39.5252H67.8103V34.5636L68.8646 34.3067ZM67.6484 32.7925C67.6484 32.6073 67.7177 32.4448 67.8554 32.3033C67.9939 32.1627 68.1543 32.0921 68.3372 32.0921C68.5194 32.0921 68.6803 32.1627 68.8183 32.3033C68.9571 32.4448 69.0264 32.6073 69.0264 32.7925C69.0264 32.9778 68.9571 33.1414 68.8183 33.2826C68.6803 33.4219 68.5194 33.4925 68.3372 33.4925C68.1543 33.4925 67.9939 33.4219 67.8554 33.2826C67.7177 33.1414 67.6484 32.9778 67.6484 32.7925ZM76.0396 34.6665V35.489C75.5327 35.1463 75.0191 34.9754 74.4993 34.9754C74.2358 34.9754 74.0196 35.0268 73.8502 35.13C73.6816 35.2322 73.5971 35.3976 73.5971 35.6229C73.5971 35.8369 73.6897 36.0062 73.8755 36.1331C74.0615 36.2604 74.3537 36.3891 74.7527 36.5186C74.9757 36.5942 75.1426 36.653 75.2538 36.6939C75.3657 36.7361 75.5122 36.8048 75.695 36.9003C75.8773 36.9968 76.0143 37.0919 76.1054 37.1888C76.1966 37.2852 76.2793 37.4114 76.3538 37.5698C76.4282 37.7276 76.4649 37.9021 76.4649 38.0944C76.4649 38.5684 76.2774 38.9456 75.903 39.2271C75.5279 39.5085 75.0259 39.6497 74.398 39.6497C73.695 39.6497 73.1102 39.4986 72.6444 39.1957V38.3934C73.2388 38.7496 73.7828 38.9281 74.2765 38.9281C75.0191 38.9281 75.3909 38.6818 75.3909 38.187C75.3909 38.0914 75.3689 38.0015 75.325 37.9196C75.2811 37.8373 75.2305 37.7704 75.1732 37.7187C75.1155 37.6673 75.0224 37.6092 74.894 37.543C74.7655 37.4791 74.6578 37.4313 74.5698 37.3998C74.4822 37.3692 74.3437 37.3194 74.1547 37.251C73.8774 37.1479 73.6579 37.059 73.4955 36.9831C73.3331 36.907 73.1715 36.8095 73.0092 36.6899C72.8468 36.5697 72.7284 36.4263 72.6546 36.2621C72.5804 36.0979 72.5432 35.9017 72.5432 35.6755C72.5432 35.3871 72.6106 35.1408 72.7457 34.9354C72.8807 34.7281 73.0568 34.5806 73.2726 34.4917C73.4888 34.4022 73.6864 34.34 73.8655 34.3067C74.0448 34.2713 74.222 34.2538 74.398 34.2538C74.9724 34.2538 75.5194 34.3914 76.0396 34.6665ZM81.6387 39.5252H80.6761L80.6048 38.9281C80.0234 39.4091 79.4429 39.6497 78.8621 39.6497C78.3756 39.6497 77.9989 39.5179 77.732 39.2529C77.4648 38.9887 77.3317 38.6551 77.3317 38.2491C77.3317 38.036 77.3704 37.8324 77.4483 37.6367C77.5259 37.4408 77.6543 37.251 77.8334 37.0657C78.0129 36.8801 78.2824 36.7312 78.6439 36.6175C79.0055 36.5036 79.4399 36.4474 79.9459 36.4474H80.575V36.1695C80.575 35.7097 80.49 35.3967 80.322 35.2276C80.152 35.0594 79.8685 34.9754 79.4705 34.9754C78.9837 34.9754 78.3856 35.1769 77.6763 35.5829V34.7595C78.4062 34.4233 79.122 34.2538 79.8246 34.2538C80.5074 34.2538 80.9796 34.3953 81.2433 34.6773C81.5067 34.958 81.6387 35.3842 81.6387 35.9525V39.5252ZM80.5856 37.1677H80.0479C78.9397 37.1677 78.3855 37.5009 78.3855 38.1669C78.3855 38.401 78.46 38.5691 78.6084 38.6761C78.7574 38.7828 78.9426 38.8355 79.166 38.8355C79.4496 38.8355 79.7225 38.7668 79.987 38.6291C80.2504 38.4928 80.4501 38.335 80.5856 38.1564V37.1677ZM84.2894 34.5023H85.8905L85.6365 35.2025H84.2894V37.9196C84.2894 38.6062 84.5797 38.9492 85.16 38.9492C85.3833 38.9492 85.6089 38.9016 85.8397 38.8052V39.4635C85.5219 39.5874 85.1441 39.6497 84.7036 39.6497C84.1978 39.6497 83.8264 39.5035 83.5898 39.2109C83.3531 38.9205 83.2345 38.5374 83.2345 38.0627V33.8222L84.2894 33.0492V34.5023Z" fill="#B6B6B6"/>
  </symbol>

  <symbol id="icon-qiwi" viewBox="0 0 88 32" fill="none" xmlns="http://www.w3.org/2000/svg">
    <path d="M57.8816 6.70064V21.5538C57.8816 21.7767 57.7005 21.9575 57.4771 21.9575H54.4366C54.2132 21.9575 54.0321 21.7767 54.0321 21.5538V6.70064C54.0321 6.47758 54.2132 6.29685 54.4366 6.29685H57.4771C57.7005 6.29685 57.8816 6.47758 57.8816 6.70064ZM81.5734 6.29685H78.1714C77.9935 6.29685 77.8365 6.41197 77.7846 6.5805L75.0926 15.3581L72.1339 6.57074C72.0789 6.40723 71.9243 6.29685 71.7502 6.29685H69.3763C69.2021 6.29685 69.0476 6.40723 68.9925 6.57074L66.0338 15.3581L63.3419 6.5805C63.2899 6.41197 63.1329 6.29685 62.955 6.29685H59.553C59.423 6.29685 59.3009 6.35888 59.2248 6.46335C59.1488 6.56771 59.1282 6.70209 59.1694 6.82408L64.1661 21.6853C64.2212 21.8488 64.3757 21.9591 64.5497 21.9591H67.2499C67.4239 21.9591 67.5784 21.8488 67.6336 21.6855L70.5632 13.0032L73.4928 21.6855C73.548 21.8488 73.7025 21.9591 73.8765 21.9591H76.5767C76.7507 21.9591 76.9053 21.8488 76.9604 21.6853L81.9571 6.82408C81.9982 6.70209 81.9776 6.56771 81.9016 6.46335C81.8256 6.35888 81.7034 6.29685 81.5734 6.29685ZM86.6899 6.29685H83.6493C83.426 6.29685 83.2449 6.47758 83.2449 6.70064V21.5538C83.2449 21.7767 83.426 21.9575 83.6493 21.9575H86.6899C86.9133 21.9575 87.0944 21.7767 87.0944 21.5538V6.70064C87.0944 6.47758 86.9133 6.29685 86.6899 6.29685ZM52.2727 21.448C52.4497 21.6437 52.3044 21.9591 52.0372 21.9591H48.3115C48.1599 21.9591 48.0161 21.8917 47.9191 21.7753L47.2876 21.0173C46.0014 21.8497 44.47 22.3352 42.8262 22.3352C38.2911 22.3352 34.6015 18.6532 34.6015 14.1272C34.6015 9.6013 38.2911 5.91922 42.8262 5.91922C47.3615 5.91922 51.0511 9.6013 51.0511 14.1272C51.0511 15.7587 50.5696 17.2792 49.744 18.5584L52.2727 21.448ZM44.8885 18.1376L43.2567 16.179C43.0856 15.9736 43.232 15.6621 43.4997 15.6621H46.9138C47.0764 15.1792 47.1683 14.6631 47.1683 14.1272C47.1683 11.6734 45.3382 9.55794 42.8262 9.55794C40.3144 9.55794 38.4842 11.6734 38.4842 14.1272C38.4842 16.581 40.3144 18.6667 42.8262 18.6667C43.5874 18.6667 44.2845 18.4728 44.8885 18.1376ZM25.2663 21.3726C25.3588 21.9917 25.1629 22.2481 24.966 22.2481C24.7513 22.2481 24.4816 21.9971 24.1635 21.5019C23.8498 21.0132 23.7349 20.4523 23.8904 20.1689C23.9931 19.9815 24.2084 19.8999 24.4797 20.0022C25.0049 20.2004 25.2111 21.0028 25.2663 21.3726ZM22.3606 22.7222C22.9902 23.2536 23.1819 23.8852 22.8487 24.3308C22.6634 24.5751 22.3632 24.7099 22.0034 24.7099C21.65 24.7099 21.2901 24.5795 21.0401 24.3617C20.4674 23.8624 20.2994 23.0526 20.6733 22.5926C20.8193 22.4128 21.0566 22.3138 21.3411 22.3138C21.6868 22.3138 22.0488 22.4591 22.3606 22.7222ZM21.3069 27.8511C24.0196 27.8511 26.9633 28.7795 30.2212 31.6602C30.5476 31.9488 30.982 31.5903 30.6975 31.2318C27.4956 27.1976 24.5343 26.4294 21.5811 25.78C17.9687 24.9857 16.1105 22.9571 14.8155 20.73C14.5578 20.2868 14.4423 20.3649 14.4191 20.9345C14.3908 21.631 14.4389 22.5529 14.5951 23.4598C14.4495 23.4666 14.3028 23.4648 14.1555 23.4648C8.98743 23.4648 4.79792 19.2839 4.79792 14.1265C4.79792 8.96903 8.98743 4.78808 14.1555 4.78808C19.3235 4.78808 23.513 8.96903 23.513 14.1265C23.513 14.4934 23.4951 14.8561 23.4538 15.212C22.7702 15.0891 21.4255 15.0752 20.4819 15.1566C20.1269 15.1872 20.1769 15.3522 20.4452 15.4006C23.5385 15.9585 25.6638 17.8715 26.1495 21.3431C26.1607 21.4229 26.2654 21.4469 26.3068 21.3778C27.5797 19.2582 28.3109 16.7774 28.3109 14.1265C28.3109 6.32463 21.9733 0 14.1555 0C6.33762 0 0 6.32463 0 14.1265C0 21.9283 6.33762 28.2536 14.1555 28.2536C16.2297 28.2536 18.2871 27.8511 21.3069 27.8511Z" fill="#FF8C00"/>
  </symbol>

  <symbol id="icon-yandex-money" viewBox="0 0 95 26" fill="none" xmlns="http://www.w3.org/2000/svg">
    <path d="M6.5357 13.6603L2.75697 22.1474H0L4.15097 13.0714C2.19909 12.0802 0.898152 10.2839 0.898152 6.96951C0.898152 2.32317 3.84077 0 7.34127 0H10.9033V22.1474H8.51813V13.6603H6.5357ZM8.51813 2.01345H7.24821C5.32783 2.01345 3.46948 3.28336 3.46948 6.96951C3.46948 10.5316 5.17273 11.6779 7.24821 11.6779H8.51813V2.01345Z" fill="#FF0000"/>
    <path d="M22.3984 6.53545V22.1472H20.0132V15.1471H16.4201V22.1472H14.0039V6.53545H16.4201V13.1637H20.0132V6.53545H22.3984ZM34.8194 25.2139H32.6513V22.1472H25.9605V25.2139H23.7924V20.1647H24.7526C26.1772 16.8499 26.3323 12.0184 26.3323 7.86741V6.53545H33.5805V20.1647H34.8194V25.2139ZM31.1953 8.48686H28.5003V8.76604C28.5003 12.0494 28.3457 16.8499 27.0448 20.1647H31.1953V8.48686ZM41.4792 22.3638C38.2578 22.3638 36.2754 19.7935 36.2754 14.9925C36.2754 9.97391 37.6694 6.31879 40.9838 6.31879C43.5857 6.31879 45.2894 8.27019 45.2894 13.5665V14.899H38.7842C38.7842 18.4305 39.7754 20.2888 41.6958 20.2888C43.0588 20.2888 44.1431 19.6694 44.7625 19.236L45.3204 21.0934C44.3292 21.8685 43.0278 22.3638 41.4792 22.3638ZM38.8152 12.9165H42.8111C42.8111 10.2526 42.3773 8.30121 40.9838 8.30121C39.4967 8.30121 38.9703 10.1285 38.8152 12.9165ZM50.1834 14.3721V22.1472H47.7672V6.53545H50.1834V13.7526L53.9311 6.53545H56.3784L52.5066 13.8767L56.9358 22.1472H54.3029L50.1834 14.3721ZM57.2455 14.3415C57.2455 9.44705 59.1353 6.31879 62.7905 6.31879C64.184 6.31879 64.9896 6.69055 65.671 7.12388L65.3303 9.4165C64.6798 8.85862 63.7507 8.33223 62.7594 8.33223C61.0247 8.33223 59.7858 10.2836 59.7858 14.2175C59.7858 18.1203 60.715 20.3509 62.6664 20.3509C63.8432 20.3509 64.7419 19.886 65.2993 19.3907L65.8567 21.187C65.0206 21.899 64.0294 22.3638 62.6043 22.3638C59.2589 22.3638 57.2455 19.6694 57.2455 14.3415Z" fill="black"/>
    <path d="M76.4485 12.435C76.4485 11.1005 76.5604 10.2536 79.3242 8.19046C81.6123 6.48242 88.9465 0.64563 88.9465 0.64563V10.3891H94.524V24.4125H78.1906C77.2325 24.4125 76.4482 23.6283 76.4482 22.6701L76.4485 12.435Z" fill="#FFD000"/>
    <path d="M88.9462 10.3893V16.035L78.6973 23.0172L91.6553 18.801V10.3893H88.9462Z" fill="#D8B100"/>
    <path d="M84.2629 10.0973C84.8622 9.38311 85.7375 9.13097 86.2181 9.53428C86.6987 9.93763 86.6027 10.8436 86.0033 11.5578C85.4043 12.2719 84.5287 12.5237 84.0481 12.1203C83.5674 11.7171 83.6637 10.8113 84.2629 10.0973Z" fill="#1D1D1B"/>
  </symbol>

  <symbol id="icon-card" viewBox="0 0 64 64" fill="none" xmlns="http://www.w3.org/2000/svg">
    <path d="M46.2208 10.3466L10.3345 17.3036C9.19199 17.5251 8.44535 18.6309 8.66684 19.7734L12.9042 41.6311C13.1257 42.7736 14.2315 43.5202 15.374 43.2988L51.2603 36.3417C52.4028 36.1202 53.1495 35.0145 52.928 33.8719L48.6906 12.0143C48.4691 10.8717 47.3633 10.1251 46.2208 10.3466Z" fill="#D15241"/>
    <path d="M9.14551 22.2708L49.1806 14.5247L49.9875 18.695L9.95239 26.4411L9.14551 22.2708Z" fill="#3A556A"/>
    <path d="M53.6521 53.6924H16.324C15.3738 53.6924 14.6035 52.9221 14.6035 51.9719V28.9337C14.6035 27.9835 15.3738 27.2133 16.324 27.2133H53.6521C54.6022 27.2133 55.3725 27.9835 55.3725 28.9337V51.9719C55.3725 52.9221 54.6022 53.6924 53.6521 53.6924Z" fill="#FEDA6F"/>
    <path d="M48.6043 50.8642C50.343 50.8642 51.7525 49.4547 51.7525 47.716C51.7525 45.9773 50.343 44.5678 48.6043 44.5678C46.8656 44.5678 45.4561 45.9773 45.4561 47.716C45.4561 49.4547 46.8656 50.8642 48.6043 50.8642Z" fill="#64798A"/>
    <path d="M43.6716 50.8642C45.4104 50.8642 46.8199 49.4547 46.8199 47.716C46.8199 45.9773 45.4104 44.5678 43.6716 44.5678C41.9329 44.5678 40.5234 45.9773 40.5234 47.716C40.5234 49.4547 41.9329 50.8642 43.6716 50.8642Z" fill="#E56353"/>
    <path d="M23.738 29.5772H17.333C16.9512 29.5772 16.6416 29.8868 16.6416 30.2687V35.1452C16.6416 35.527 16.9512 35.8366 17.333 35.8366H23.738C24.1199 35.8366 24.4295 35.527 24.4295 35.1452V30.2687C24.4295 29.8868 24.1199 29.5772 23.738 29.5772Z" fill="#E1E6E9"/>
    <path d="M24.4283 31.4143V30.7986H22.9212V29.5772H22.3055V31.5374H20.8428V29.5772H20.2271V32.9066H18.7643V29.5772H18.1487V30.9218H16.6416V31.5374H18.1487V35.8371H18.7643V33.5222H20.2271V35.8371H20.8428V34.8914H22.3055V35.8371H22.9212V33.8301H24.4283V33.2144H22.9212V31.4143H24.4283ZM22.3055 34.2758H20.8428V32.1531H22.3055V34.2758Z" fill="#EDEDED"/>
    <path d="M36.0933 50.3522C36.0933 50.6376 35.8623 50.8641 35.5814 50.8641H31.3052C31.0243 50.8641 30.7979 50.6376 30.7979 50.3522C30.7979 50.0714 31.0243 49.8449 31.3052 49.8449H35.5814C35.8623 49.8449 36.0933 50.0714 36.0933 50.3522Z" fill="#D6B24E"/>
    <path d="M16.6416 46.3116C16.6416 46.0308 16.8681 45.8043 17.1489 45.8043H33.9503C34.2312 45.8043 34.4577 46.0308 34.4577 46.3116C34.4577 46.5924 34.2312 46.8235 33.9503 46.8235H17.1489C16.8681 46.8235 16.6416 46.5924 16.6416 46.3116Z" fill="#D6B24E"/>
    <path d="M21.937 50.3522C21.937 50.6376 21.706 50.8641 21.4252 50.8641H17.1489C16.8681 50.8641 16.6416 50.6376 16.6416 50.3522C16.6416 50.0714 16.8681 49.8449 17.1489 49.8449H21.4252C21.706 49.8449 21.937 50.0714 21.937 50.3522Z" fill="#D6B24E"/>
    <path d="M29.0122 50.3522C29.0122 50.6376 28.7857 50.8641 28.5049 50.8641H24.2287C23.9478 50.8641 23.7168 50.6376 23.7168 50.3522C23.7168 50.0714 23.9478 49.8449 24.2287 49.8449H28.5049C28.7857 49.8449 29.0122 50.0714 29.0122 50.3522Z" fill="#D6B24E"/>
  </symbol>

  <symbol id="icon-master-card" width="101" height="36" viewBox="0 0 101 36" fill="none" xmlns="http://www.w3.org/2000/svg">
    <path d="M20.8889 8.99365L18.3241 24.9544H22.4236L24.9869 8.99365H20.8889ZM33.2547 15.4952C31.8221 14.7877 30.9439 14.3102 30.9439 13.5866C30.9614 12.9288 31.6865 12.2547 33.3059 12.2547C34.6378 12.2213 35.6167 12.5343 36.3594 12.8457L36.7314 13.0118L37.2888 9.67239C36.479 9.35938 35.1951 9.0145 33.6092 9.0145C29.5608 9.0145 26.7101 11.1194 26.6924 14.1298C26.659 16.3513 28.7334 17.5841 30.2858 18.3236C31.8717 19.0822 32.4115 19.5741 32.4115 20.2481C32.394 21.2829 31.1292 21.7604 29.949 21.7604C28.3137 21.7604 27.4353 21.5145 26.1018 20.9378L25.562 20.6919L24.9887 24.1623C25.9517 24.5904 27.7227 24.9672 29.561 24.9865C33.8634 24.9865 36.6629 22.9135 36.6982 19.7051C36.7122 17.9451 35.6183 16.5971 33.2547 15.4952ZM47.7988 9.04305H44.627C43.6496 9.04305 42.907 9.32418 42.4838 10.3271L36.3943 24.9544H40.6967L41.8816 21.7875H46.6951L47.3099 24.9672H51.1045L47.7988 9.04305ZM43.0748 18.5916C43.1578 18.5997 44.7262 13.422 44.7262 13.422L45.975 18.5916C45.975 18.5916 43.8845 18.5916 43.0748 18.5916ZM14.8985 8.99365L10.882 19.8375L10.4444 17.699C9.70175 15.2316 7.37337 12.5502 4.7749 11.2183L8.45287 24.9385H12.7905L19.2361 8.9954H14.8985V8.99365Z" fill="#2394BC"/>
    <path d="M9.0935 11.0534C8.78049 9.83635 7.78227 9.01556 6.42655 8.99805H0.0655091L0 9.29336C4.96205 10.5167 9.12696 14.2808 10.4781 17.8215L9.0935 11.0534Z" fill="#EFC75E"/>
    <path d="M67.6693 30.8949V29.1339C67.6796 28.9858 67.6581 28.8372 67.6065 28.698C67.5548 28.5588 67.4741 28.4322 67.3697 28.3267C67.2652 28.2212 67.1395 28.1391 67.0009 28.086C66.8623 28.0328 66.7139 28.0098 66.5657 28.0185C66.3717 28.0058 66.1779 28.0454 66.0044 28.1332C65.8309 28.221 65.6842 28.3537 65.5795 28.5175C65.4841 28.3586 65.3476 28.2284 65.1844 28.1405C65.0211 28.0527 64.8372 28.0106 64.652 28.0185C64.4906 28.0104 64.3299 28.0445 64.1857 28.1177C64.0416 28.1908 63.919 28.3003 63.8302 28.4353V28.089H63.2197V30.8949H63.8361V29.3511C63.823 29.2551 63.8312 29.1574 63.8602 29.0651C63.8893 28.9727 63.9383 28.8878 64.004 28.8166C64.0696 28.7454 64.1501 28.6895 64.2398 28.653C64.3295 28.6166 64.4262 28.6003 64.5229 28.6056C64.9279 28.6056 65.1334 28.8697 65.1334 29.3452V30.9067H65.7498V29.3511C65.7372 29.2552 65.7458 29.1578 65.775 29.0656C65.8042 28.9734 65.8533 28.8888 65.9188 28.8177C65.9844 28.7466 66.0647 28.6908 66.1541 28.6541C66.2436 28.6174 66.34 28.6009 66.4366 28.6056C66.8534 28.6056 67.0529 28.8697 67.0529 29.3452V30.9067L67.6693 30.8949ZM76.7886 28.089H75.7848V27.2378H75.1684V28.089H74.6108V28.6466H75.1802V29.9381C75.1802 30.5897 75.4326 30.9771 76.1546 30.9771C76.4244 30.978 76.6889 30.9027 76.9177 30.7599L76.7416 30.2375C76.5779 30.3351 76.3921 30.3896 76.2016 30.396C75.9081 30.396 75.7965 30.2081 75.7965 29.9263V28.6466H76.7945L76.7886 28.089ZM81.9954 28.0185C81.8466 28.0142 81.6993 28.05 81.5691 28.1223C81.4389 28.1947 81.3307 28.3008 81.2558 28.4295V28.089H80.6511V30.8949H81.2616V29.3217C81.2616 28.858 81.4612 28.5997 81.8487 28.5997C81.9792 28.5979 82.1089 28.6218 82.2302 28.6701L82.4181 28.0831C82.2786 28.0332 82.1317 28.0074 81.9837 28.0068L81.9954 28.0185ZM74.1235 28.312C73.778 28.1066 73.3807 28.0047 72.9789 28.0185C72.2686 28.0185 71.8048 28.359 71.8048 28.9167C71.8048 29.3745 72.1453 29.6563 72.7734 29.7444L73.0669 29.7855C73.4015 29.8324 73.56 29.9205 73.56 30.079C73.56 30.2962 73.3369 30.4194 72.9202 30.4194C72.5849 30.4291 72.2562 30.3258 71.9868 30.1259L71.6933 30.6014C72.0489 30.8497 72.4748 30.9773 72.9084 30.9654C73.7185 30.9654 74.1881 30.5838 74.1881 30.0496C74.1881 29.5154 73.8183 29.2982 73.2078 29.2102L72.9143 29.1691C72.6501 29.1339 72.4388 29.081 72.4388 28.8932C72.4388 28.7053 72.6384 28.5645 72.973 28.5645C73.2822 28.5681 73.5854 28.6509 73.8535 28.8051L74.1235 28.312ZM90.4748 28.0185C90.326 28.0142 90.1787 28.05 90.0485 28.1223C89.9184 28.1947 89.8101 28.3008 89.7352 28.4295V28.089H89.1306V30.8949H89.7411V29.3217C89.7411 28.858 89.9407 28.5997 90.3281 28.5997C90.4587 28.5979 90.5883 28.6218 90.7096 28.6701L90.8975 28.0831C90.7581 28.0332 90.6112 28.0074 90.4631 28.0068L90.4748 28.0185ZM82.6088 29.4861C82.6016 29.6833 82.6356 29.8798 82.7086 30.0631C82.7817 30.2464 82.8922 30.4124 83.0331 30.5505C83.174 30.6887 83.3421 30.7959 83.5269 30.8653C83.7116 30.9347 83.9087 30.9648 84.1057 30.9536C84.4723 30.9723 84.8325 30.8529 85.1154 30.619L84.8219 30.1259C84.6108 30.2869 84.3535 30.3754 84.0881 30.3783C83.8625 30.3601 83.6519 30.2575 83.4984 30.0911C83.3449 29.9247 83.2597 29.7066 83.2597 29.4802C83.2597 29.2538 83.3449 29.0357 83.4984 28.8693C83.6519 28.7029 83.8625 28.6003 84.0881 28.5821C84.3535 28.585 84.6108 28.6736 84.8219 28.8345L85.1154 28.3414C84.8325 28.1075 84.4723 27.9882 84.1057 28.0068C83.9087 27.9956 83.7116 28.0257 83.5269 28.0951C83.3421 28.1645 83.174 28.2717 83.0331 28.4099C82.8922 28.548 82.7817 28.714 82.7086 28.8973C82.6356 29.0806 82.6016 29.2772 82.6088 29.4743V29.4861ZM88.3264 29.4861V28.089H87.7159V28.4295C87.6122 28.2961 87.4783 28.1892 87.3252 28.1178C87.1721 28.0463 87.0042 28.0123 86.8353 28.0185C86.4461 28.0185 86.0729 28.1732 85.7976 28.4484C85.5224 28.7236 85.3678 29.0969 85.3678 29.4861C85.3678 29.8753 85.5224 30.2486 85.7976 30.5238C86.0729 30.799 86.4461 30.9536 86.8353 30.9536C87.0042 30.9598 87.1721 30.9258 87.3252 30.8544C87.4783 30.7829 87.6122 30.6761 87.7159 30.5427V30.8832H88.3264V29.4861ZM86.0546 29.4861C86.0644 29.3209 86.1222 29.1622 86.221 29.0295C86.3198 28.8968 86.4552 28.7958 86.6106 28.7391C86.7661 28.6824 86.9347 28.6724 87.0958 28.7103C87.2568 28.7482 87.4032 28.8324 87.5171 28.9525C87.6309 29.0726 87.7071 29.2233 87.7363 29.3862C87.7655 29.549 87.7465 29.7169 87.6815 29.8691C87.6165 30.0212 87.5085 30.1511 87.3707 30.2426C87.2328 30.3341 87.0712 30.3834 86.9058 30.3842C86.7896 30.3857 86.6743 30.3631 86.5673 30.3179C86.4602 30.2726 86.3637 30.2057 86.2837 30.1214C86.2038 30.037 86.1421 29.937 86.1027 29.8277C86.0633 29.7184 86.0469 29.602 86.0546 29.4861ZM78.6876 28.0185C78.2984 28.024 77.9273 28.1838 77.6559 28.4629C77.3845 28.742 77.2351 29.1174 77.2406 29.5066C77.246 29.8958 77.4059 30.2669 77.6849 30.5383C77.964 30.8097 78.3395 30.9591 78.7287 30.9536C79.1509 30.9753 79.5662 30.8393 79.8939 30.5721L79.6004 30.1201C79.3686 30.3059 79.0815 30.4092 78.7844 30.4136C78.5826 30.4309 78.382 30.3689 78.2253 30.2406C78.0685 30.1123 77.9679 29.928 77.945 29.7268H80.0289C80.0289 29.6504 80.0289 29.5741 80.0289 29.492C80.0289 28.6114 79.483 28.0244 78.6964 28.0244L78.6876 28.0185ZM78.6876 28.5645C78.7789 28.5625 78.8698 28.5786 78.9549 28.6118C79.0401 28.6449 79.1178 28.6945 79.1838 28.7578C79.2498 28.821 79.3026 28.8966 79.3393 28.9803C79.3761 29.064 79.396 29.154 79.3979 29.2454H77.9303C77.941 29.057 78.0249 28.8802 78.1643 28.753C78.3036 28.6257 78.4872 28.558 78.6758 28.5645H78.6876ZM93.9823 29.492V26.9619H93.3952V28.4295C93.2916 28.2961 93.1576 28.1892 93.0045 28.1178C92.8514 28.0463 92.6836 28.0123 92.5147 28.0185C92.1255 28.0185 91.7522 28.1732 91.477 28.4484C91.2018 28.7236 91.0472 29.0969 91.0472 29.4861C91.0472 29.8753 91.2018 30.2486 91.477 30.5238C91.7522 30.799 92.1255 30.9536 92.5147 30.9536C92.6836 30.9598 92.8514 30.9258 93.0045 30.8544C93.1576 30.7829 93.2916 30.6761 93.3952 30.5427V30.8832H93.9823V29.492ZM95.0007 30.4869C95.0389 30.4865 95.0768 30.4935 95.1123 30.5075C95.146 30.5212 95.1768 30.5411 95.2032 30.5662C95.229 30.5915 95.2499 30.6213 95.2649 30.6542C95.2797 30.6885 95.2874 30.7255 95.2874 30.7628C95.2874 30.8002 95.2797 30.8372 95.2649 30.8714C95.2499 30.9043 95.229 30.9342 95.2032 30.9595C95.1768 30.9845 95.146 31.0044 95.1123 31.0182C95.0771 31.0337 95.0391 31.0417 95.0007 31.0417C94.9451 31.0413 94.8907 31.025 94.8439 30.9949C94.7972 30.9647 94.7599 30.9219 94.7366 30.8714C94.7219 30.8371 94.7143 30.8002 94.7143 30.7628C94.7143 30.7255 94.7219 30.6886 94.7366 30.6542C94.7515 30.6213 94.7724 30.5915 94.7982 30.5662C94.8246 30.5411 94.8555 30.5212 94.8892 30.5075C94.9274 30.4923 94.9684 30.4853 95.0095 30.4869H95.0007ZM95.0007 30.983C95.03 30.9831 95.059 30.9771 95.0858 30.9654C95.1111 30.9541 95.134 30.9382 95.1534 30.9184C95.1901 30.8783 95.2104 30.826 95.2104 30.7716C95.2104 30.7173 95.1901 30.6649 95.1534 30.6249C95.134 30.6051 95.1111 30.5891 95.0858 30.5779C95.059 30.5662 95.03 30.5602 95.0007 30.5603C94.9715 30.5605 94.9425 30.5665 94.9156 30.5779C94.8892 30.5887 94.8653 30.6047 94.8452 30.6249C94.8085 30.6649 94.7881 30.7173 94.7881 30.7716C94.7881 30.826 94.8085 30.8783 94.8452 30.9184C94.8653 30.9385 94.8893 30.9545 94.9156 30.9654C94.9452 30.9781 94.9773 30.9841 95.0095 30.983H95.0007ZM95.0183 30.6337C95.0457 30.6324 95.0727 30.6407 95.0946 30.6572C95.1036 30.6646 95.1107 30.6741 95.1153 30.6848C95.1199 30.6955 95.1219 30.7072 95.1211 30.7188C95.1215 30.7286 95.1199 30.7383 95.1163 30.7474C95.1128 30.7565 95.1074 30.7647 95.1005 30.7716C95.0835 30.7871 95.0618 30.7964 95.0389 30.7981L95.124 30.8949H95.0565L94.9772 30.7981H94.9508V30.8949H94.8951V30.6366L95.0183 30.6337ZM94.9538 30.6836V30.754H95.0183C95.0298 30.7575 95.0421 30.7575 95.0536 30.754C95.0556 30.7499 95.0567 30.7454 95.0567 30.7408C95.0567 30.7362 95.0556 30.7317 95.0536 30.7276C95.0556 30.7235 95.0567 30.719 95.0567 30.7144C95.0567 30.7098 95.0556 30.7053 95.0536 30.7012C95.0421 30.6978 95.0298 30.6978 95.0183 30.7012L94.9538 30.6836ZM91.7252 29.492C91.7349 29.3268 91.7927 29.1681 91.8915 29.0354C91.9903 28.9026 92.1258 28.8017 92.2812 28.745C92.4366 28.6883 92.6053 28.6783 92.7663 28.7162C92.9274 28.7541 93.0738 28.8383 93.1876 28.9584C93.3014 29.0785 93.3776 29.2292 93.4069 29.3921C93.4361 29.5549 93.417 29.7228 93.3521 29.8749C93.2871 30.0271 93.179 30.1569 93.0412 30.2485C92.9034 30.34 92.7418 30.3892 92.5764 30.3901C92.4601 30.3916 92.3449 30.369 92.2378 30.3237C92.1308 30.2785 92.0342 30.2116 91.9543 30.1272C91.8743 30.0429 91.8127 29.9429 91.7733 29.8336C91.7339 29.7242 91.7175 29.6079 91.7252 29.492ZM71.1121 29.492V28.089H70.5016V28.4295C70.398 28.2961 70.2641 28.1892 70.111 28.1178C69.9579 28.0463 69.79 28.0123 69.6211 28.0185C69.2319 28.0185 68.8586 28.1732 68.5834 28.4484C68.3082 28.7236 68.1536 29.0969 68.1536 29.4861C68.1536 29.8753 68.3082 30.2486 68.5834 30.5238C68.8586 30.799 69.2319 30.9536 69.6211 30.9536C69.79 30.9598 69.9579 30.9258 70.111 30.8544C70.2641 30.7829 70.398 30.6761 70.5016 30.5427V30.8832H71.1121V29.492ZM68.8404 29.492C68.8501 29.3268 68.908 29.1681 69.0068 29.0354C69.1055 28.9026 69.241 28.8017 69.3964 28.745C69.5519 28.6883 69.7205 28.6783 69.8815 28.7162C70.0426 28.7541 70.189 28.8383 70.3028 28.9584C70.4166 29.0785 70.4929 29.2292 70.5221 29.3921C70.5513 29.5549 70.5322 29.7228 70.4673 29.8749C70.4023 30.0271 70.2943 30.1569 70.1564 30.2485C70.0186 30.34 69.857 30.3892 69.6916 30.3901C69.5749 30.3924 69.459 30.3704 69.3512 30.3255C69.2435 30.2806 69.1462 30.2139 69.0656 30.1294C68.985 30.045 68.9229 29.9447 68.8831 29.835C68.8433 29.7252 68.8268 29.6084 68.8345 29.492H68.8404Z" fill="#231F20"/>
    <path d="M83.1654 6.70654H73.9199V23.322H83.1654V6.70654Z" fill="#FF5F00"/>
    <path d="M74.5073 15.0165C74.5056 13.4161 74.8681 11.8362 75.5673 10.3966C76.2665 8.95703 77.2841 7.6954 78.543 6.70728C76.9842 5.48224 75.1122 4.72046 73.141 4.50901C71.1698 4.29755 69.1788 4.64495 67.3956 5.5115C65.6125 6.37805 64.1091 7.72879 63.0573 9.40934C62.0055 11.0899 61.4478 13.0325 61.4478 15.015C61.4478 16.9976 62.0055 18.9401 63.0573 20.6207C64.1091 22.3012 65.6125 23.652 67.3956 24.5185C69.1788 25.3851 71.1698 25.7325 73.141 25.521C75.1122 25.3096 76.9842 24.5478 78.543 23.3227C77.2845 22.3349 76.2671 21.0738 75.5679 19.6347C74.8687 18.1956 74.506 16.6164 74.5073 15.0165Z" fill="#EB001B"/>
    <path d="M95.6398 15.0157C95.6397 16.9984 95.0818 18.9411 94.0299 20.6217C92.9779 22.3023 91.4743 23.6531 89.6909 24.5195C87.9075 25.3859 85.9164 25.7331 83.945 25.5213C81.9736 25.3096 80.1016 24.5474 78.543 23.322C79.801 22.3333 80.8181 21.0718 81.5175 19.6327C82.2169 18.1935 82.5803 16.6144 82.5803 15.0143C82.5803 13.4142 82.2169 11.835 81.5175 10.3959C80.8181 8.95675 79.801 7.69524 78.543 6.70655C80.1016 5.48113 81.9736 4.71898 83.945 4.50722C85.9164 4.29546 87.9075 4.64264 89.6909 5.50907C91.4743 6.37549 92.9779 7.72621 94.0299 9.40682C95.0818 11.0874 95.6397 13.0301 95.6398 15.0128V15.0157Z" fill="#F79E1B"/>
    <path d="M94.6303 21.5613V21.2208H94.7682V21.1504H94.4189V21.2208H94.5686V21.5613H94.6303ZM95.3083 21.5613V21.1504H95.2026L95.0793 21.4439L94.9561 21.1504H94.8621V21.5613H94.9385V21.2531L95.0529 21.5202H95.1322L95.2466 21.2531V21.5642L95.3083 21.5613Z" fill="#F79E1B"/>
  </symbol>

  <symbol id="icon-account" width="23" height="23" viewBox="0 0 23 23" xmlns="http://www.w3.org/2000/svg">
    <path d="M11.5 0C5.175 0 0 5.175 0 11.5C0 17.825 5.175 23 11.5 23C17.825 23 23 17.825 23 11.5C23 5.175 17.825 0 11.5 0ZM11.5 3.45C13.455 3.45 14.95 4.945 14.95 6.9C14.95 8.855 13.455 10.35 11.5 10.35C9.545 10.35 8.05 8.855 8.05 6.9C8.05 4.945 9.545 3.45 11.5 3.45ZM11.5 19.78C8.625 19.78 6.095 18.285 4.6 16.1C4.6 13.8 9.2 12.535 11.5 12.535C13.8 12.535 18.4 13.8 18.4 16.1C16.905 18.285 14.375 19.78 11.5 19.78Z" fill="inherit"/>
  </symbol>

  <symbol id="icon-rub" width="23" height="23" viewBox="0 0 23 23" xmlns="http://www.w3.org/2000/svg">
    <g clip-path="url(#clip0)">
    <path d="M22.9999 11.5001C22.9999 17.8513 17.8513 22.9999 11.5001 22.9999C5.14866 22.9999 0 17.8513 0 11.5001C0 5.14866 5.14866 0 11.5001 0C17.8513 0 22.9999 5.14866 22.9999 11.5001Z" fill="inherit"/>
    <path d="M9.66983 16.7274C9.23701 16.7274 8.88574 16.3762 8.88574 15.9433V7.05704C8.88574 6.62422 9.23701 6.27295 9.66983 6.27295H13.5903C15.3195 6.27295 16.7267 7.68014 16.7267 9.40931C16.7267 11.1385 15.3195 12.5457 13.5903 12.5457H10.4539V15.9433C10.4539 16.3762 10.1027 16.7274 9.66983 16.7274ZM10.4539 10.9775H13.5903C14.455 10.9775 15.1585 10.274 15.1585 9.40931C15.1585 8.54463 14.455 7.84113 13.5903 7.84113H10.4539V10.9775Z" fill="#FAFAFA"/>
    <path d="M12.8065 15.1595H7.05655C6.62373 15.1595 6.27246 14.8082 6.27246 14.3754C6.27246 13.9426 6.62373 13.5913 7.05655 13.5913H12.8065C13.2393 13.5913 13.5906 13.9426 13.5906 14.3754C13.5906 14.8082 13.2393 15.1595 12.8065 15.1595Z" fill="#FAFAFA"/>
    </g>
    <defs>
    <clipPath id="clip0">
    <rect width="23" height="23" fill="white"/>
    </clipPath>
    </defs>
  </symbol>

  <symbol id="icon-gear" width="23" height="23" viewBox="0 0 23 23" xmlns="http://www.w3.org/2000/svg">
    <path d="M21.4093 13.9631L19.9584 13.1294C20.0563 12.5992 20.1143 12.0575 20.1143 11.5005C20.1143 10.9436 20.0562 10.4031 19.9584 9.87269L21.4079 9.04037C21.7169 8.86348 21.9408 8.5715 22.0337 8.22945C22.1262 7.88756 22.0774 7.52268 21.8996 7.21632L20.2004 4.28763C19.8298 3.64857 19.0086 3.42975 18.3663 3.79847L16.9204 4.62952C16.089 3.92777 15.1288 3.37433 14.0811 3.00185V1.33537C14.0811 0.597927 13.4811 0 12.7396 0H9.33998C8.59981 0 7.9973 0.597847 7.9973 1.33537V3.00185C6.94962 3.37433 5.992 3.92777 5.1604 4.62952L3.71225 3.79847C3.06993 3.42975 2.2499 3.64857 1.87929 4.28763L0.179977 7.21537C-0.190549 7.85426 0.0294708 8.67021 0.670667 9.03893L2.1201 9.87261C2.02482 10.403 1.96566 10.9434 1.96566 11.5004C1.96566 12.0575 2.02482 12.6004 2.1201 13.1309L0.670667 13.9645C0.0294708 14.3332 -0.190549 15.1492 0.179977 15.7881L1.87785 18.7158C2.05701 19.0222 2.34911 19.246 2.69395 19.3383C3.03767 19.4293 3.40466 19.382 3.71225 19.204L5.16313 18.3713C5.99208 19.0732 6.95082 19.6266 7.99746 19.9978V21.6642C7.99746 22.4016 8.59997 23 9.34014 23H12.7397C13.4813 23 14.0813 22.4017 14.0813 21.6642V19.9978C15.129 19.6266 16.0891 19.0732 16.9182 18.3713L18.3676 19.2041C19.0088 19.5728 19.83 19.3538 20.2006 18.7159L21.8998 15.7881C22.2702 15.1492 22.0516 14.3321 21.4093 13.9631ZM11.0407 17.1804C7.89303 17.1804 5.3329 14.6317 5.3329 11.5005C5.3329 8.36937 7.89311 5.82066 11.0407 5.82066C14.189 5.82066 16.7495 8.36937 16.7495 11.5005C16.7495 14.6317 14.189 17.1804 11.0407 17.1804Z" fill="inherit"/>
    <path d="M11.0257 7.48145C8.81062 7.48145 7.00781 9.28411 7.00781 11.5005C7.00781 13.7166 8.81055 15.5192 11.0257 15.5192C13.2418 15.5192 15.0445 13.7166 15.0445 11.5005C15.0446 9.28411 13.2418 7.48145 11.0257 7.48145Z" fill="inherit"/>
  </symbol>

  <symbol id="icon-search" width="18" height="18" viewBox="0 0 18 18" fill="none" xmlns="http://www.w3.org/2000/svg">
    <path fill-rule="evenodd" clip-rule="evenodd" d="M17.5594 15.4322L13.649 11.5218C13.6282 11.5011 13.6039 11.4865 13.5821 11.4672C14.3516 10.3 14.8007 8.90289 14.8007 7.4004C14.8007 3.31325 11.4874 0 7.40033 0C3.31325 0 0 3.31325 0 7.40033C0 11.4873 3.31318 14.8007 7.40026 14.8007C8.90281 14.8007 10.2999 14.3516 11.4671 13.5821C11.4864 13.6038 11.5008 13.6282 11.5216 13.6489L15.4321 17.5594C16.0195 18.1468 16.9719 18.1468 17.5594 17.5594C18.1468 16.972 18.1468 16.0196 17.5594 15.4322ZM7.40033 12.2352C4.73002 12.2352 2.56539 10.0706 2.56539 7.40033C2.56539 4.73002 4.73009 2.56539 7.40033 2.56539C10.0705 2.56539 12.2352 4.73009 12.2352 7.40033C12.2352 10.0706 10.0705 12.2352 7.40033 12.2352Z" fill="#CCCCCC"/>
  </symbol>



</svg>
