<svg>

  <symbol id="icon-logo" viewBox="0 0 25 33" fill="none" xmlns="http://www.w3.org/2000/svg">
    <path d="M12.5 0.427246V7.42007C15.4545 7.42007 17.8585 9.82335 17.8585 12.7785C17.8585 15.7331 15.4545 18.137 12.5 18.137V33.0001L22.308 20.6689C24.069 18.4418 25 15.7652 25 12.9272C25 6.0349 19.3923 0.427246 12.5 0.427246Z" fill="#CD2A00"/>
    <path d="M17.8585 12.7789C17.8585 9.82369 15.4545 7.42041 12.5 7.42041V18.1374C15.4545 18.1374 17.8585 15.7334 17.8585 12.7789Z" fill="#D8D7DA"/>
    <path d="M7.14152 12.7785C7.14152 9.82335 9.54547 7.42007 12.5 7.42007V0.427246C5.60765 0.427246 0 6.0349 0 12.9272C0 15.7652 0.931037 18.4418 2.69465 20.6716L12.5 33.0001V18.137C9.54547 18.137 7.14152 15.7331 7.14152 12.7785Z" fill="#FF3501"/>
    <path d="M7.14148 12.7789C7.14148 15.7334 9.54543 18.1374 12.5 18.1374V7.42041C9.54543 7.42041 7.14148 9.82369 7.14148 12.7789Z" fill="white"/>
  </symbol>

  <symbol id="icon-en" viewBox="0 0 21 14" fill="none" xmlns="http://www.w3.org/2000/svg">
    <g opacity="0.5" clip-path="url(#clip0)">
    <path d="M20.9945 0.000976562H0V13.977H20.9945V0.000976562Z" fill="white"/>
    <path d="M20.9961 5.59349H11.7519V0.00195312H9.22854V5.59349H0.00878906V8.38771H9.22854V13.9769H11.7519V8.38771H20.9961V5.59349Z" fill="#EF081F"/>
    <path d="M0.000152588 1.62891V4.67187H4.57936L0.000152588 1.62891Z" fill="#001F80"/>
    <path d="M2.52643 0.000976562L2.45934 0.0048299L8.39694 3.97138V0.000976562H2.52643Z" fill="#001F80"/>
    <path d="M7.04701 4.65249L0.000152588 0.00146484V1.0977L5.36782 4.65249H7.04701Z" fill="#EF081F"/>
    <path d="M13.9529 9.3252L20.9998 13.9762V12.88L15.6321 9.3252H13.9529Z" fill="#EF081F"/>
    <path d="M0.000152588 12.3721V9.3291H4.57936L0.000152588 12.3721Z" fill="#001F80"/>
    <path d="M2.52643 14.0002L2.45934 13.9964L8.39694 10.0298V14.0002H2.52643Z" fill="#001F80"/>
    <path d="M7.01096 9.32471L0.00474548 13.9737L1.6433 13.9758L8.40368 9.51378V9.32471H7.01096Z" fill="#EF081F"/>
    <path d="M21 1.62793V4.67088H16.4208L21 1.62793Z" fill="#001F80"/>
    <path d="M18.4737 0L18.5408 0.00384L12.6032 3.97037V0H18.4737Z" fill="#001F80"/>
    <path d="M20.9932 0.00650766L19.4172 0.00634766L12.6092 4.49973V4.65737H14.0496L20.9932 0.00650766Z" fill="#EF081F"/>
    <path d="M21 12.3711V9.32812H16.4208L21 12.3711Z" fill="#001F80"/>
    <path d="M18.4737 13.9992L18.5408 13.9953L12.6032 10.0288V13.9992H18.4737Z" fill="#001F80"/>
    </g>
    <defs>
    <clipPath id="clip0">
    <rect width="21" height="14" fill="white"/>
    </clipPath>
    </defs>
  </symbol>

  <symbol id="icon-ru" viewBox="0 0 21 14" fill="none" xmlns="http://www.w3.org/2000/svg">
    <path d="M0 0V1.55555V3.11112V4.66667H21V3.11112V1.55555V0H0Z" fill="#F0F0F0"/>
    <path d="M21 4.6665H0V9.33317H21V4.6665Z" fill="#0052B4"/>
    <path d="M21 0H0V4.66667H21V0Z" fill="#EDEDED"/>
    <path d="M21 9.3335H0V14.0002H21V9.3335Z" fill="#D80027"/>
  </symbol>



</svg>
